<svg width="123" height="32" viewBox="0 0 123 32" fill="none" xmlns="http://www.w3.org/2000/svg">
<path d="M47.4014 7.28271H50.2461V23.6378H47.4014V7.28271Z" fill="black"/>
<path d="M80.9714 17.4736C80.9714 13.9191 83.3565 11.0615 86.8442 11.0615C88.5621 11.0615 90.0761 11.7315 91.0751 12.8773V11.3128H93.9199V23.6142H91.0751V22.0732C90.0761 23.2156 88.5621 23.8622 86.8442 23.8622C83.3565 23.8588 80.9714 21.0012 80.9714 17.4736ZM91.0751 17.4736C91.0751 15.3128 89.5887 13.7215 87.5632 13.7215C85.4097 13.7215 83.8715 15.3128 83.8715 17.4736C83.8715 19.6344 85.4097 21.2022 87.5632 21.2022C89.5611 21.1988 91.0751 19.6612 91.0751 17.4736Z" fill="black"/>
<path d="M95.563 11.3096H98.4078L100.997 17.524C101.664 19.1152 102.175 20.8305 102.175 20.8305C102.175 20.8305 102.715 19.0918 103.354 17.5508L105.919 11.3129H108.764L103.534 23.6412H100.789L95.563 11.3096Z" fill="black"/>
<path d="M109.512 17.4736C109.512 13.8957 112.513 11.0615 116.256 11.0615C120 11.0615 123 13.8957 123 17.4736C123 21.028 120 23.8622 116.256 23.8622C112.513 23.8622 109.512 21.028 109.512 17.4736ZM120.103 17.4736C120.103 15.3128 118.437 13.7215 116.256 13.7215C114.075 13.7215 112.409 15.3128 112.409 17.4736C112.409 19.6109 114.075 21.2022 116.256 21.2022C118.437 21.2022 120.103 19.6109 120.103 17.4736Z" fill="black"/>
<path d="M61.4046 11.5166V18.3474C61.4046 19.8281 60.1637 21.0308 58.6359 21.0308C57.1115 21.0308 55.8671 19.8281 55.8671 18.3474V11.5166H52.9463V18.3474C52.9463 21.3926 55.4938 23.8616 58.6359 23.8616C61.7779 23.8616 64.3254 21.3926 64.3254 18.3474V11.5166H61.4046Z" fill="black"/>
<path d="M70.0148 23.6339V16.8065C70.0148 15.3257 71.2557 14.123 72.7836 14.123C74.3079 14.123 75.5523 15.3257 75.5523 16.8065V23.6372H78.4731V16.8065C78.4731 13.7612 75.9256 11.2922 72.7836 11.2922C69.6415 11.2922 67.094 13.7612 67.094 16.8065V23.6372H70.0148V23.6339Z" fill="black"/>
<path d="M32.1533 15.6951C32.1429 15.9932 32.1256 16.288 32.098 16.5862C32.0496 17.1323 31.9632 17.685 31.8595 18.2244C31.8042 18.5125 31.7419 18.7905 31.6694 19.0653C31.5795 19.407 31.4792 19.7453 31.3686 20.077C31.3341 20.1942 31.2891 20.3115 31.2511 20.4187C31.2511 20.4254 31.2511 20.4254 31.2511 20.4354C31.2442 20.4455 31.2442 20.4555 31.2338 20.4656C31.2269 20.489 31.2235 20.4991 31.2131 20.5225C31.099 20.8341 30.9746 21.1456 30.8329 21.4505C30.7706 21.608 30.6946 21.7654 30.622 21.9128C30.5494 22.0636 30.4768 22.2177 30.3973 22.3684C30.3144 22.5192 30.2349 22.6666 30.1519 22.8173C30.1519 22.8274 30.1415 22.8508 30.1312 22.8642C29.9687 23.1557 29.7959 23.4438 29.6058 23.7185C29.4882 23.8994 29.3604 24.077 29.2359 24.2579C29.0181 24.5694 28.7831 24.8743 28.5273 25.1724C28.4098 25.3232 28.2819 25.4706 28.1471 25.6113C27.8913 25.9027 27.6148 26.1909 27.3279 26.4656C27.321 26.4823 27.3037 26.4924 27.2933 26.5091C27.2311 26.5694 27.1654 26.6264 27.1032 26.68L26.8785 26.8877C26.723 27.0217 26.5743 27.1557 26.4153 27.283C26.322 27.3667 26.2252 27.4438 26.1319 27.5208C26.0731 27.5677 26.0144 27.6113 25.9556 27.6582C25.7931 27.7821 25.6307 27.9027 25.4648 28.0233C25.1364 28.2612 24.808 28.479 24.4658 28.69C24.2964 28.7939 24.1305 28.8944 23.9508 28.9882C23.377 29.3131 22.779 29.6046 22.1672 29.8659C22.0462 29.9195 21.9183 29.9664 21.7835 30.0166C21.4309 30.1506 21.0853 30.2746 20.7327 30.3818C20.3628 30.499 19.9826 30.5995 19.6058 30.6967C19.4157 30.7402 19.2256 30.7771 19.0355 30.8207C19.0251 30.8274 19.0009 30.8307 18.9871 30.8307C18.7279 30.8877 18.4617 30.9279 18.2024 30.9681C18.1921 30.9681 18.1817 30.9681 18.1679 30.9748C16.0352 31.2863 13.8506 31.1892 11.749 30.6967C11.3134 30.5928 10.8883 30.4722 10.4597 30.3282C10.4528 30.3282 10.4528 30.3282 10.4528 30.3282C10.3733 30.3081 10.2972 30.2813 10.2212 30.2545C9.97229 30.1707 9.71996 30.0769 9.47454 29.9831C8.71754 29.685 7.98129 29.3366 7.27614 28.9212C6.81296 28.6565 6.36705 28.3751 5.93498 28.0602C5.2644 27.5845 4.62493 27.0585 4.02348 26.4723C3.77115 26.2311 3.53264 25.9865 3.30797 25.7319C3.0902 25.494 2.8828 25.2495 2.68232 25.0083C2.29173 24.4957 1.92187 23.9832 1.59695 23.4505C1.43449 23.1858 1.27548 22.9212 1.12685 22.6498C0.981674 22.3785 0.84341 22.1038 0.708603 21.8224C0.456271 21.2863 0.238505 20.7336 0.0483924 20.1808C0.0449358 20.1607 0.0380226 20.1473 0.0276528 20.1272C0.0207396 20.1004 0.0069132 20.0736 0 20.0468C1.95989 20.6699 4.01657 20.9212 6.05596 20.814C9.94118 20.6029 13.7745 19.0686 16.7472 16.2043C18.8834 14.1473 20.311 11.6716 21.0334 9.04519C21.8388 6.15408 21.7869 3.09212 20.8917 0.221105V0.217755C20.8917 0.211054 20.8882 0.207704 20.8882 0.197654C20.8882 0.187604 20.8779 0.184254 20.8779 0.177554C20.8779 0.174204 20.8779 0.167504 20.8709 0.157453C20.864 0.130653 20.8537 0.110552 20.8502 0.0837518C20.8433 0.0670014 20.8329 0.0502511 20.8329 0.0335007C20.826 0.0268006 20.826 0.0268006 20.826 0.0234505C20.826 0.0167504 20.8226 0.00670014 20.8226 0C20.826 0 20.826 0 20.8329 0.00670014C20.8398 0.00670014 20.8398 0.00670014 20.8502 0.0134003C20.9781 0.0569512 21.106 0.093802 21.2339 0.144053C21.8872 0.365158 22.5197 0.623113 23.1385 0.92797C23.8886 1.29648 24.6041 1.72529 25.2954 2.20435C25.4993 2.3417 25.7033 2.4824 25.9003 2.63986C26.398 3.01841 26.8785 3.43382 27.3417 3.87938C28.8038 5.29981 29.9376 6.9179 30.7292 8.64988C30.8121 8.82744 30.8882 9.00834 30.9677 9.18589C31.1854 9.71185 31.3755 10.2479 31.5276 10.7805C31.659 11.2194 31.7731 11.6683 31.8629 12.1239C32.098 13.3031 32.1982 14.4991 32.1533 15.6951Z" fill="url(#paint0_linear)"/>
<path d="M30.1623 22.8141C29.9929 23.1189 29.8132 23.4171 29.6162 23.7152C29.4986 23.8928 29.3707 24.0737 29.2463 24.2513C29.0285 24.5628 28.79 24.8677 28.5377 25.1658C28.4202 25.3166 28.2923 25.464 28.1609 25.608C27.9017 25.8995 27.6286 26.1842 27.3417 26.4623C26.7472 27.0318 26.1319 27.5477 25.4786 28.0167C25.1502 28.2546 24.8219 28.4723 24.4762 28.68C24.3068 28.7805 24.1409 28.8844 23.9646 28.9782C23.3908 29.3032 22.7894 29.5946 22.181 29.8526C22.0566 29.9062 21.9287 29.9531 21.7973 30.0033C21.4482 30.1407 21.0956 30.2613 20.7465 30.3685C20.3767 30.4824 19.9964 30.5862 19.6197 30.68C19.4296 30.7202 19.2429 30.7604 19.0528 30.8006C18.7797 30.8542 18.4997 30.9011 18.2198 30.9514C18.2059 30.9514 18.199 30.9514 18.1852 30.9581C16.049 31.2697 13.8644 31.1758 11.7663 30.68C11.3308 30.5795 10.9056 30.4556 10.477 30.3149C10.477 30.3216 10.4701 30.3149 10.4701 30.3149C10.394 30.2948 10.3145 30.268 10.2385 30.2412C9.98614 30.1608 9.73381 30.0636 9.48839 29.9698C8.73139 29.6717 7.99859 29.3266 7.28999 28.9112C6.82681 28.6465 6.38091 28.3618 5.94537 28.0502C5.27479 27.5745 4.63532 27.0452 4.03388 26.4623C3.78154 26.2177 3.54304 25.9732 3.31836 25.7219C3.10059 25.4841 2.88974 25.2395 2.69617 24.995C2.29175 24.4925 1.92535 23.9765 1.59697 23.4472C1.43451 23.1826 1.27551 22.9179 1.12688 22.6466C0.978242 22.3752 0.839978 22.0972 0.705171 21.8191C0.445926 21.2831 0.22816 20.7337 0.0415039 20.1776H0.0484171L0.0691567 20.1675C0.0691567 20.1675 2.55445 21.5578 6.13203 22.4121C6.71965 22.5561 7.34184 22.6834 7.98822 22.7906C15.9972 24.0938 23.8886 19.5678 26.519 12.124C26.5744 11.9531 26.6297 11.7923 26.6815 11.6215C26.7022 11.5746 26.7161 11.521 26.7299 11.4707C26.92 10.8141 27.0375 10.1809 27.0375 9.60474L27.7392 12.5763L30.1623 22.8141Z" fill="url(#paint1_linear)"/>
<path d="M32.1529 15.6951C32.1426 15.9932 32.1253 16.288 32.0976 16.5862C32.0492 17.1323 31.9628 17.685 31.8591 18.2244C31.8038 18.5125 31.7416 18.7905 31.669 19.0652C31.5792 19.407 31.4789 19.7453 31.3683 20.077C31.3337 20.1942 31.2888 20.3115 31.2508 20.4187C31.2439 20.4354 31.2439 20.4388 31.2335 20.4522C31.2335 20.4589 31.2335 20.4622 31.2335 20.4622C31.2266 20.4857 31.2231 20.4957 31.2128 20.5192C31.0987 20.8307 30.9742 21.1423 30.8325 21.4471C30.7703 21.6046 30.6943 21.7621 30.6217 21.9095C30.5491 22.0602 30.4765 22.2143 30.397 22.3651C30.314 22.5158 30.2345 22.6632 30.1516 22.814C29.9857 23.1188 29.8025 23.4136 29.6054 23.7151C29.4879 23.896 29.36 24.0736 29.2356 24.2545C29.0178 24.5661 28.7828 24.8709 28.527 25.1691C28.4095 25.3198 28.2816 25.4672 28.1468 25.6079C27.891 25.8994 27.6144 26.1875 27.3275 26.4622C27.2515 26.5359 27.1824 26.6063 27.1029 26.6766L26.8782 26.8843C26.7226 27.0183 26.574 27.1523 26.415 27.2796C26.3217 27.3634 26.2249 27.4404 26.1316 27.5175C26.0728 27.5644 26.014 27.6079 25.9553 27.6548C25.7928 27.7788 25.6303 27.8994 25.4644 28.02C25.1361 28.2578 24.8077 28.4756 24.4655 28.6866C24.2961 28.7905 24.1302 28.891 23.9504 28.9848C23.3766 29.3098 22.7787 29.6012 22.1668 29.8625C22.0459 29.9161 21.918 29.963 21.7832 30.0133C21.4306 30.1473 21.0849 30.2712 20.7323 30.3784C20.3625 30.4957 19.9823 30.5962 19.6055 30.6933C19.4154 30.7369 19.2253 30.7737 19.0352 30.8173C26.0244 23.9664 27.5073 17.5209 26.8574 12.3216C26.8263 12.1072 26.7987 11.8994 26.7641 11.6951C26.7641 11.6884 26.7641 11.6884 26.7641 11.6783C26.7537 11.618 26.7434 11.5544 26.7365 11.5008C26.733 11.4941 26.733 11.4807 26.733 11.474C25.7098 5.53097 21.994 1.36013 21.0158 0.348407C20.9985 0.331657 20.9536 0.284756 20.8879 0.221105V0.217755C20.8879 0.211054 20.8844 0.207704 20.8844 0.197654C20.8844 0.187604 20.8775 0.184254 20.8775 0.177554C20.8775 0.174204 20.8775 0.167503 20.8706 0.157453C20.8637 0.130653 20.8533 0.110552 20.8499 0.0837517C20.843 0.0670014 20.8326 0.050251 20.8326 0.0335007C20.8257 0.0268006 20.8257 0.0268006 20.8257 0.0234505C20.8257 0.0167503 20.8222 0.00670014 20.8222 0C20.8257 0 20.8257 0 20.8326 0.00670014C20.8395 0.00670014 20.8395 0.00670014 20.8499 0.0134003C20.9778 0.0569512 21.1057 0.093802 21.2336 0.144053C21.8869 0.365158 22.5194 0.623113 23.1381 0.927969C23.8882 1.29648 24.6037 1.72529 25.2951 2.20435C25.499 2.3417 25.7029 2.4824 25.9 2.63986C26.3977 3.01841 26.8782 3.43382 27.3414 3.87938C28.8035 5.29981 29.9373 6.91789 30.7288 8.64988C30.8118 8.82743 30.8878 9.00834 30.9673 9.18589C31.1851 9.71185 31.3752 10.2479 31.5273 10.7805C31.6587 11.2194 31.7727 11.6683 31.8626 12.1239C32.0976 13.3031 32.1979 14.4991 32.1529 15.6951Z" fill="url(#paint2_linear)"/>
<defs>
<linearGradient id="paint0_linear" x1="8.78595" y1="27.9925" x2="27.4819" y2="8.70209" gradientUnits="userSpaceOnUse">
<stop stop-color="#00EBDC"/>
<stop offset="1" stop-color="#BD9BFF"/>
</linearGradient>
<linearGradient id="paint1_linear" x1="-3.84219" y1="20.3764" x2="26.7129" y2="20.3764" gradientUnits="userSpaceOnUse">
<stop stop-color="#00EBDC"/>
<stop offset="0.2266" stop-color="#26DBE3"/>
<stop offset="0.7298" stop-color="#87B2F5"/>
<stop offset="1" stop-color="#BD9BFF"/>
</linearGradient>
<linearGradient id="paint2_linear" x1="12.3926" y1="6.87575" x2="32.0027" y2="27.1094" gradientUnits="userSpaceOnUse">
<stop stop-color="#00EBDC"/>
<stop offset="1" stop-color="#BD9BFF"/>
</linearGradient>
</defs>
</svg>
