<svg width="21" height="21" viewBox="0 0 21 21" fill="none" xmlns="http://www.w3.org/2000/svg">
<path d="M0.4375 19.125H20.5625V20.5625H0.4375V19.125Z" fill="#72A7D8"/>
<path d="M18.4062 6.90625C18.5969 6.90625 18.7797 6.83052 18.9145 6.69573C19.0493 6.56094 19.125 6.37812 19.125 6.1875V4.03125C19.1249 3.88354 19.0794 3.73943 18.9945 3.61854C18.9096 3.49765 18.7895 3.40585 18.6506 3.35562L10.7444 0.480624C10.5865 0.423532 10.4135 0.423532 10.2556 0.480624L2.34937 3.35562C2.21046 3.40585 2.0904 3.49765 2.00552 3.61854C1.92064 3.73943 1.87506 3.88354 1.875 4.03125V6.1875C1.875 6.37812 1.95073 6.56094 2.08552 6.69573C2.22031 6.83052 2.40313 6.90625 2.59375 6.90625H3.3125V16.25H1.875V17.6875H19.125V16.25H17.6875V6.90625H18.4062ZM3.3125 4.53437L10.5 1.91812L17.6875 4.53437V5.46875H3.3125V4.53437ZM11.9375 16.25H9.0625V6.90625H11.9375V16.25ZM4.75 6.90625H7.625V16.25H4.75V6.90625ZM16.25 16.25H13.375V6.90625H16.25V16.25Z" fill="#72A7D8"/>
</svg>
