<svg width="20" height="24" viewBox="0 0 20 24" fill="none" xmlns="http://www.w3.org/2000/svg">
<path fill-rule="evenodd" clip-rule="evenodd" d="M7.32199 2.88975C7.68024 1.65593 8.7309 0.397095 10.2872 0.397095C11.8438 0.397095 12.8935 1.65598 13.2544 2.88748C13.2562 2.88978 13.2587 2.89267 13.2618 2.896C13.2692 2.90392 13.2776 2.9112 13.2855 2.91684C13.2915 2.92113 13.2952 2.92298 13.2956 2.9232C14.2015 3.30571 15.2678 3.9167 16.1018 5.03536C16.9425 6.16301 17.4894 7.72841 17.4894 9.91238C17.4894 12.0899 17.7134 13.284 18.0433 14.1037C18.3326 14.8224 18.7129 15.2949 19.2542 15.9672C19.3332 16.0654 19.4157 16.1678 19.5018 16.2759L19.502 16.2762C20.4996 17.5292 19.5576 19.289 18.021 19.289H2.55833C1.02456 19.289 0.0667373 17.5381 1.07252 16.2759C1.15872 16.1677 1.24126 16.0652 1.32036 15.9669C1.86153 15.2948 2.24194 14.8223 2.53145 14.1035C2.86165 13.2837 3.08621 12.0896 3.08747 9.91238M7.32199 2.88975C7.32061 2.89143 7.31888 2.89342 7.31676 2.89567C7.30995 2.90292 7.30189 2.90992 7.29385 2.9156C7.28638 2.92087 7.2819 2.92292 7.2819 2.92294L7.28142 2.92314C6.3751 3.30588 5.30843 3.91572 4.47437 5.0341C3.63373 6.16132 3.08755 7.72649 3.08747 9.9119M10.2872 2.03987C9.67051 2.03987 9.08156 2.56722 8.85365 3.37133L8.85307 3.37338C8.70611 3.88688 8.29921 4.27014 7.8914 4.44216C7.89134 4.44219 7.89128 4.44221 7.89122 4.44224C7.12607 4.76538 6.34384 5.23155 5.74684 6.03207C5.15643 6.82374 4.68941 8.02035 4.68941 9.91238V9.91285C4.68813 12.1837 4.45765 13.6243 4.01206 14.7306C3.62441 15.6931 3.08327 16.3619 2.54636 17.0255C2.46834 17.1219 2.3904 17.2182 2.31304 17.3153L2.31299 17.3154C2.28111 17.3554 2.27219 17.3882 2.27001 17.4129C2.26754 17.4409 2.27267 17.4743 2.28982 17.5088C2.31959 17.5686 2.3937 17.6463 2.55833 17.6463H18.021C18.1797 17.6463 18.2526 17.5712 18.283 17.5098C18.3155 17.4439 18.3115 17.3785 18.2613 17.3153C18.184 17.2183 18.1061 17.122 18.0281 17.0256C17.4912 16.362 16.9499 15.6931 16.5625 14.7304C16.1172 13.624 15.8875 12.1832 15.8875 9.91238C15.8875 8.02276 15.4201 6.82573 14.8292 6.03313C14.2316 5.23162 13.4491 4.76455 12.6855 4.44219C12.2731 4.26826 11.8706 3.87963 11.7245 3.37469L11.7239 3.3726C11.493 2.56683 10.9039 2.03987 10.2872 2.03987Z" fill="#224171"/>
<path fill-rule="evenodd" clip-rule="evenodd" d="M7.14845 17.4725C7.58168 17.4725 7.93289 17.8443 7.93289 18.3029V19.1334C7.93289 19.7941 8.18082 20.4277 8.62215 20.8949C9.06348 21.3621 9.66206 21.6246 10.2862 21.6246C10.9103 21.6246 11.5089 21.3621 11.9502 20.8949C12.3916 20.4277 12.6395 19.7941 12.6395 19.1334V18.3029C12.6395 17.8443 12.9907 17.4725 13.4239 17.4725C13.8572 17.4725 14.2084 17.8443 14.2084 18.3029V19.1334C14.2084 20.2346 13.7951 21.2907 13.0596 22.0693C12.324 22.848 11.3264 23.2854 10.2862 23.2854C9.24597 23.2854 8.24834 22.848 7.51279 22.0693C6.77724 21.2907 6.36401 20.2346 6.36401 19.1334V18.3029C6.36401 17.8443 6.71522 17.4725 7.14845 17.4725Z" fill="#224171"/>
</svg>
