<svg width="17" height="16" viewBox="0 0 17 16" fill="none" xmlns="http://www.w3.org/2000/svg">
<path d="M16.0702 2.4939H14.3437V3.51546H15.9374V14.7526H1.06262V3.51546H2.65634V2.4939H0.929809C0.805625 2.49589 0.683065 2.52139 0.569132 2.56893C0.455198 2.61648 0.352122 2.68514 0.26579 2.77099C0.179458 2.85684 0.111563 2.95821 0.0659817 3.06929C0.0204003 3.18038 -0.00197407 3.29901 0.000136556 3.41841V14.8497C-0.00197407 14.9691 0.0204003 15.0877 0.0659817 15.1988C0.111563 15.3099 0.179458 15.4112 0.26579 15.4971C0.352122 15.5829 0.455198 15.6516 0.569132 15.6991C0.683065 15.7467 0.805625 15.7722 0.929809 15.7742H16.0702C16.1944 15.7722 16.3169 15.7467 16.4309 15.6991C16.5448 15.6516 16.6479 15.5829 16.7342 15.4971C16.8205 15.4112 16.8884 15.3099 16.934 15.1988C16.9796 15.0877 17.002 14.9691 16.9999 14.8497V3.41841C17.002 3.29901 16.9796 3.18038 16.934 3.06929C16.8884 2.95821 16.8205 2.85684 16.7342 2.77099C16.6479 2.68514 16.5448 2.61648 16.4309 2.56893C16.3169 2.52139 16.1944 2.49589 16.0702 2.4939Z" fill="#224171"/>
<path d="M3.18762 6.58014H4.25012V7.60246H3.18762V6.58014Z" fill="#224171"/>
<path d="M6.375 6.58014H7.4375V7.60246H6.375V6.58014Z" fill="#224171"/>
<path d="M9.5625 6.58014H10.625V7.60246H9.5625V6.58014Z" fill="#224171"/>
<path d="M12.7499 6.58014H13.8124V7.60246H12.7499V6.58014Z" fill="#224171"/>
<path d="M3.18762 9.13403H4.25012V10.1564H3.18762V9.13403Z" fill="#224171"/>
<path d="M6.375 9.13403H7.4375V10.1564H6.375V9.13403Z" fill="#224171"/>
<path d="M9.5625 9.13403H10.625V10.1564H9.5625V9.13403Z" fill="#224171"/>
<path d="M12.7499 9.13403H13.8124V10.1564H12.7499V9.13403Z" fill="#224171"/>
<path d="M3.18762 11.6879H4.25012V12.7103H3.18762V11.6879Z" fill="#224171"/>
<path d="M6.375 11.6879H7.4375V12.7103H6.375V11.6879Z" fill="#224171"/>
<path d="M9.5625 11.6879H10.625V12.7103H9.5625V11.6879Z" fill="#224171"/>
<path d="M12.7499 11.6879H13.8124V12.7103H12.7499V11.6879Z" fill="#224171"/>
<path d="M4.25006 4.53703C4.39094 4.53703 4.52605 4.48322 4.62567 4.38743C4.72529 4.29164 4.78125 4.16172 4.78125 4.02625V0.961557C4.78125 0.82609 4.72529 0.69617 4.62567 0.60038C4.52605 0.50459 4.39094 0.450775 4.25006 0.450775C4.10918 0.450775 3.97407 0.50459 3.87445 0.60038C3.77484 0.69617 3.71887 0.82609 3.71887 0.961557V4.02625C3.71887 4.16172 3.77484 4.29164 3.87445 4.38743C3.97407 4.48322 4.10918 4.53703 4.25006 4.53703Z" fill="#224171"/>
<path d="M12.7499 4.53703C12.8908 4.53703 13.0259 4.48322 13.1255 4.38743C13.2252 4.29164 13.2811 4.16172 13.2811 4.02625V0.961557C13.2811 0.82609 13.2252 0.69617 13.1255 0.60038C13.0259 0.50459 12.8908 0.450775 12.7499 0.450775C12.609 0.450775 12.4739 0.50459 12.3742 0.60038C12.2746 0.69617 12.2186 0.82609 12.2186 0.961557V4.02625C12.2186 4.16172 12.2746 4.29164 12.3742 4.38743C12.4739 4.48322 12.609 4.53703 12.7499 4.53703Z" fill="#224171"/>
<path d="M5.84375 2.4939H11.1562V3.51622H5.84375V2.4939Z" fill="#224171"/>
</svg>
