<svg width="12" height="16" viewBox="0 0 12 16" fill="none" xmlns="http://www.w3.org/2000/svg">
<path d="M2.66667 7.31928H4V8.74575H2.66667V7.31928ZM12 3.75309V13.7384C12 14.523 11.4 15.1649 10.6667 15.1649H1.33333C0.979711 15.1649 0.640573 15.0146 0.390524 14.7471C0.140476 14.4796 0 14.1167 0 13.7384L0.00666666 3.75309C0.00666666 2.96853 0.593333 2.32662 1.33333 2.32662H2V0.900146H3.33333V2.32662H8.66667V0.900146H10V2.32662H10.6667C11.4 2.32662 12 2.96853 12 3.75309ZM1.33333 5.17957H10.6667V3.75309H1.33333V5.17957ZM10.6667 13.7384V6.60604H1.33333V13.7384H10.6667ZM8 8.74575H9.33333V7.31928H8V8.74575ZM5.33333 8.74575H6.66667V7.31928H5.33333V8.74575Z" fill="#224171"/>
</svg>
