<svg width="21" height="22" viewBox="0 0 21 22" fill="none" xmlns="http://www.w3.org/2000/svg">
<path fill-rule="evenodd" clip-rule="evenodd" d="M10.4921 1.94437C5.49415 1.94437 1.48498 5.96919 1.50004 10.8896L1.50004 10.8908V10.892C1.49998 12.6036 1.99097 14.2777 2.91239 15.7085C2.96502 15.7817 3.01426 15.8575 3.05993 15.9354L3.06356 15.9416L3.06707 15.9479C3.14102 16.0796 3.2287 16.2572 3.28913 16.4532C3.34443 16.6326 3.40813 16.9251 3.3249 17.2373L3.32446 17.2389L2.54981 20.0939L5.22863 19.1089C5.49496 18.9972 5.78035 18.9402 6.06847 18.9411C6.06895 18.9411 6.06944 18.9411 6.06992 18.9411L6.06706 19.7053L6.06847 18.9411C6.06866 18.9411 6.06828 18.9411 6.06847 18.9411C6.33822 18.9415 6.60562 18.9923 6.85741 19.0909L6.85849 19.0913C7.01053 19.1511 7.61614 19.3804 8.21498 19.5511C8.80368 19.719 9.89081 19.9226 10.6599 19.9226C15.6328 19.9226 19.4999 15.8543 19.5 10.8994C19.4998 10.2847 19.4359 9.67152 19.3095 9.0705L19.3091 9.0689C18.4657 5.01734 14.8473 1.94437 10.4921 1.94437ZM4.63667e-05 10.8931C-0.017057 5.09168 4.69976 0.416016 10.4921 0.416016C15.547 0.416016 19.7836 3.98511 20.7763 8.75066C20.9248 9.45671 20.9998 10.1768 21 10.8988C21 16.6815 16.4774 21.451 10.6599 21.451C9.7133 21.451 8.48481 21.2152 7.8107 21.0229C7.14757 20.8338 6.49306 20.5859 6.31879 20.5173C6.23817 20.4858 6.15257 20.4696 6.06623 20.4695H6.06522L6.06421 20.4695C5.97097 20.4691 5.87862 20.488 5.79276 20.5251L5.77405 20.5331L2.59314 21.7029C2.46108 21.758 2.32192 21.7937 2.17986 21.8089L2.13987 21.8131L2.09965 21.813C1.9409 21.8125 1.78381 21.7799 1.63751 21.7172C1.4912 21.6544 1.35857 21.5626 1.24731 21.4473C1.13605 21.3319 1.04836 21.1951 0.989327 21.045C0.930295 20.8948 0.901089 20.7342 0.903405 20.5725L0.903734 20.5495L0.905417 20.5266C0.913095 20.4221 0.931361 20.3186 0.959916 20.2179L1.85755 16.9096C1.84119 16.8571 1.80994 16.7875 1.76845 16.7129C1.74588 16.6748 1.72151 16.6378 1.69543 16.6021L1.6826 16.5846L1.67079 16.5663C0.581107 14.8825 0.000209936 12.91 4.63667e-05 10.8931Z" fill="#224171"/>
</svg>
