<svg width="22" height="24" viewBox="0 0 22 24" fill="none" xmlns="http://www.w3.org/2000/svg">
<path d="M19.9161 12.4301V11.8089V11.1794L21.4564 9.80613C21.7404 9.55113 21.9267 9.20207 21.9825 8.82063C22.0383 8.43919 21.9599 8.04993 21.7613 7.72166L19.8679 4.4519C19.7272 4.20361 19.5249 3.99739 19.2813 3.85391C19.0377 3.71043 18.7614 3.63475 18.48 3.63446C18.3056 3.6331 18.1322 3.66071 17.9665 3.7162L16.017 4.3865C15.6804 4.15861 15.3293 3.95379 14.9661 3.77342L14.5569 1.71347C14.4835 1.33713 14.2826 0.999064 13.9893 0.75846C13.6959 0.517856 13.3289 0.390043 12.9524 0.397395H9.19775C8.82125 0.390043 8.4542 0.517856 8.16086 0.75846C7.86752 0.999064 7.66658 1.33713 7.59322 1.71347L7.18406 3.77342C6.81817 3.95375 6.4644 4.15856 6.12506 4.3865L4.21567 3.68351C4.04823 3.63906 3.87484 3.62249 3.70221 3.63446C3.42084 3.63475 3.14449 3.71043 2.90088 3.85391C2.65727 3.99739 2.45498 4.20361 2.31429 4.4519L0.420936 7.72166C0.233677 8.04944 0.164092 8.43337 0.224099 8.80768C0.284107 9.18199 0.469974 9.5234 0.749866 9.77344L2.26615 11.1876V12.4383L0.749866 13.8116C0.462068 14.0634 0.271117 14.4109 0.210901 14.7925C0.150686 15.1741 0.225099 15.5651 0.420936 15.8961L2.31429 19.1658C2.45498 19.4141 2.65727 19.6203 2.90088 19.7638C3.14449 19.9073 3.42084 19.983 3.70221 19.9833C3.87659 19.9846 4.05001 19.957 4.21567 19.9015L6.16518 19.2312C6.50176 19.4591 6.85286 19.6639 7.21615 19.8443L7.62531 21.9043C7.69867 22.2806 7.89961 22.6187 8.19295 22.8593C8.48629 23.0999 8.85334 23.2277 9.22984 23.2203H13.0165C13.3931 23.2277 13.7601 23.0999 14.0534 22.8593C14.3468 22.6187 14.5477 22.2806 14.6211 21.9043L15.0302 19.8443C15.3961 19.664 15.7499 19.4592 16.0892 19.2312L18.0307 19.9015C18.1964 19.957 18.3698 19.9846 18.5442 19.9833C18.8256 19.983 19.1019 19.9073 19.3455 19.7638C19.5891 19.6203 19.7914 19.4141 19.9321 19.1658L21.7613 15.8961C21.9485 15.5683 22.0181 15.1844 21.9581 14.81C21.8981 14.4357 21.7122 14.0943 21.4323 13.8443L19.9161 12.4301ZM18.48 18.3484L15.7282 17.4002C15.084 17.9561 14.3478 18.3907 13.5541 18.6835L12.9845 21.6181H9.19775L8.62814 18.7162C7.84065 18.4151 7.10842 17.9812 6.46202 17.4328L3.70221 18.3484L1.80886 15.0786L3.99103 13.1168C3.84269 12.2706 3.84269 11.4043 3.99103 10.5582L1.80886 8.5391L3.70221 5.26934L6.45399 6.21757C7.09816 5.66162 7.83438 5.22704 8.62814 4.93419L9.19775 1.99958H12.9845L13.5541 4.90149C14.3416 5.20265 15.0738 5.63649 15.7202 6.18487L18.48 5.26934L20.3733 8.5391L18.1912 10.501C18.3395 11.3471 18.3395 12.2134 18.1912 13.0595L20.3733 15.0786L18.48 18.3484Z" fill="#224171"/>
<path d="M11.0911 16.7135C10.1391 16.7135 9.2084 16.4258 8.4168 15.8869C7.6252 15.348 7.00822 14.582 6.64389 13.6857C6.27955 12.7895 6.18423 11.8034 6.36996 10.852C6.5557 9.90056 7.01415 9.02664 7.68736 8.34071C8.36056 7.65479 9.21827 7.18767 10.152 6.99842C11.0858 6.80917 12.0537 6.9063 12.9332 7.27752C13.8128 7.64874 14.5646 8.27738 15.0935 9.08395C15.6225 9.89051 15.9048 10.8388 15.9048 11.8088C15.9112 12.4547 15.7911 13.0955 15.5515 13.6935C15.3118 14.2915 14.9575 14.8348 14.5092 15.2915C14.061 15.7483 13.5277 16.1093 12.9408 16.3535C12.3539 16.5976 11.7251 16.72 11.0911 16.7135ZM11.0911 8.53906C10.667 8.52899 10.2453 8.60669 9.85146 8.76744C9.45765 8.9282 9.09993 9.16868 8.79995 9.47433C8.49996 9.77999 8.26394 10.1445 8.10617 10.5457C7.94839 10.947 7.87214 11.3767 7.88202 11.8088C7.87214 12.241 7.94839 12.6707 8.10617 13.0719C8.26394 13.4732 8.49996 13.8377 8.79995 14.1433C9.09993 14.449 9.45765 14.6894 9.85146 14.8502C10.2453 15.011 10.667 15.0886 11.0911 15.0786C11.5153 15.0886 11.937 15.011 12.3308 14.8502C12.7246 14.6894 13.0823 14.449 13.3823 14.1433C13.6823 13.8377 13.9183 13.4732 14.0761 13.0719C14.2339 12.6707 14.3101 12.241 14.3002 11.8088C14.3101 11.3767 14.2339 10.947 14.0761 10.5457C13.9183 10.1445 13.6823 9.77999 13.3823 9.47433C13.0823 9.16868 12.7246 8.9282 12.3308 8.76744C11.937 8.60669 11.5153 8.52899 11.0911 8.53906Z" fill="#224171"/>
</svg>
