<svg width="16" height="15" viewBox="0 0 16 15" fill="none" xmlns="http://www.w3.org/2000/svg">
<path d="M14.6307 3.53512H9.75383V1.46534C9.75383 1.14113 9.48141 0.879201 9.14421 0.879201H1.37163V0.146534C1.37163 0.0659401 1.30305 0 1.21923 0H0.152404C0.0685816 0 0 0.0659401 0 0.146534V14.5068C0 14.5874 0.0685816 14.6534 0.152404 14.6534H1.21923C1.30305 14.6534 1.37163 14.5874 1.37163 14.5068V9.67121H6.09614V11.741C6.09614 12.0652 6.36856 12.3271 6.70576 12.3271H14.6307C14.9679 12.3271 15.2404 12.0652 15.2404 11.741V4.12125C15.2404 3.79705 14.9679 3.53512 14.6307 3.53512ZM1.37163 8.35241V2.198H8.3822V8.35241H1.37163ZM13.8687 11.0083H7.46778V9.67121H9.60143C9.68525 9.67121 9.75383 9.60527 9.75383 9.52468V4.85392H13.8687V11.0083Z" fill="#6896CC"/>
<path fill-rule="evenodd" clip-rule="evenodd" d="M4.96951 0.859924H3.14729V2.68212H1.32513V4.50433H3.14729V6.32639H4.96951V4.50417H3.14735V2.68214H4.96951V0.859924ZM3.14735 6.32664H1.32513V8.14886H3.14735V6.32664ZM4.96991 6.32664H6.79213V8.14886H4.96991V6.32664ZM6.79207 2.68212H4.96991V4.50433H6.79207V6.32639H8.61428V4.50417H6.79213V2.68214H8.61428V0.859924H6.79207V2.68212Z" fill="#6896CC"/>
<path fill-rule="evenodd" clip-rule="evenodd" d="M10.2705 3.51038H8.44831V5.33259H10.2705V7.15448H8.44831V8.9767H10.2705V7.1545H12.0927V5.33229H10.2705V3.51038ZM6.62622 8.97681H8.44844V10.799H6.62622V8.97681ZM10.2705 8.97681H12.0927V10.799H10.2705V8.97681ZM12.0931 7.15448H13.9153V8.9767H12.0931V7.15448ZM13.9153 3.51038H12.0931V5.33259H13.9153V3.51038Z" fill="#6896CC"/>
</svg>
