<svg width="22" height="24" viewBox="0 0 22 24" fill="none" xmlns="http://www.w3.org/2000/svg">
<path d="M8.71173 2.29516C8.29128 4.03226 8.23411 5.83319 8.54356 7.592C8.85301 9.3508 9.52285 11.032 10.5137 12.5365C11.5045 14.0411 12.7962 15.3388 14.3129 16.3531C15.8297 17.3674 17.5407 18.078 19.3454 18.443C18.3966 19.393 17.2602 20.1488 16.0037 20.6657C14.7473 21.1825 13.3963 21.4498 12.031 21.4517C11.9044 21.4517 11.776 21.4561 11.6476 21.4517C9.27063 21.3707 6.99811 20.4864 5.22483 18.9526C3.45155 17.4187 2.28957 15.3322 1.94076 13.0555C1.59195 10.7788 2.07835 8.45581 3.31546 6.49007C4.55258 4.52433 6.46223 3.04007 8.71265 2.29516H8.71173ZM10.0673 0.152649C10.0135 0.152825 9.95977 0.157576 9.9068 0.16685C6.9871 0.669658 4.36283 2.19991 2.53925 4.46299C0.715683 6.72606 -0.17826 9.56195 0.0295412 12.4247C0.237342 15.2874 1.5322 17.9745 3.6648 19.9686C5.7974 21.9628 8.61697 23.123 11.5806 23.2259C11.7311 23.2312 11.8815 23.2259 12.0301 23.2259C13.9551 23.2271 15.8522 22.7797 17.5609 21.9216C19.2695 21.0634 20.7395 19.8197 21.8465 18.2956C21.9362 18.1643 21.9886 18.0124 21.9983 17.8552C22.0081 17.6981 21.9749 17.5412 21.9021 17.4004C21.8293 17.2596 21.7195 17.1398 21.5836 17.0532C21.4478 16.9665 21.2908 16.9159 21.1284 16.9066C19.2961 16.751 17.5254 16.1898 15.953 15.2663C14.3806 14.3429 13.0487 13.0819 12.0602 11.5809C11.0718 10.0799 10.4532 8.37902 10.2524 6.60979C10.0515 4.84055 10.2738 3.05031 10.9019 1.37745C10.9554 1.24355 10.975 1.09923 10.9591 0.956509C10.9432 0.813793 10.8923 0.676814 10.8107 0.556982C10.729 0.43715 10.619 0.337935 10.4897 0.267604C10.3603 0.197272 10.2155 0.157859 10.0673 0.152649Z" fill="#224171"/>
</svg>
