<svg width="24" height="21" viewBox="0 0 24 21" fill="none" xmlns="http://www.w3.org/2000/svg">
<path d="M15.9485 3.02607L16.9835 1.2018C15.2271 0.511536 13.5805 0.166403 12.0437 0.166403C8.84458 0.166403 6.10025 1.25111 3.8107 3.42051C1.52114 5.58992 0.25091 8.36741 0 11.753C0 12.016 0.0940913 12.2543 0.282274 12.4679C0.470456 12.6816 0.674321 12.7884 0.893867 12.7884H1.08205C1.33296 12.7884 1.55251 12.698 1.74069 12.5172C1.92887 12.3364 2.02296 12.1146 2.02296 11.8516C2.24251 8.99194 3.30104 6.68284 5.19854 4.9243C7.09605 3.16577 9.37776 2.2865 12.0437 2.2865C13.5805 2.2865 14.8821 2.53303 15.9485 3.02607ZM20.5589 7.11836C21.4058 8.5975 21.8762 10.1753 21.9703 11.8516C21.9703 12.0817 22.0566 12.2954 22.2291 12.4926C22.4016 12.6898 22.6133 12.7884 22.8642 12.7884H23.0994C23.3503 12.7884 23.5699 12.6734 23.7581 12.4433C23.9462 12.2132 24.0246 11.9831 23.9933 11.753C23.8051 9.28777 23.0367 7.06906 21.688 5.09687L20.5589 7.11836ZM21.0764 0.166403C20.5433 -0.129425 20.0728 -0.0308154 19.6651 0.462231L18.6771 2.1879L17.6421 3.96286L13.1257 11.9502C12.7494 11.8187 12.3887 11.753 12.0437 11.753C10.946 11.753 10.005 12.1639 9.22095 12.9856C8.43685 13.8074 8.04481 14.7935 8.04481 15.9439C8.04481 17.0943 8.43685 18.0804 9.22095 18.9022C10.005 19.7239 10.946 20.1348 12.0437 20.1348C13.1414 20.1348 14.0823 19.7239 14.8664 18.9022C15.6505 18.0804 16.0426 17.0943 16.0426 15.9439C16.0426 14.6948 15.6505 13.7088 14.8664 12.9856L19.2887 5.34339L20.2767 3.51912L21.3587 1.64554C21.7665 0.988148 21.6724 0.495101 21.0764 0.166403ZM12.0437 18.064C11.5105 18.064 11.04 17.8503 10.6323 17.423C10.2246 16.9957 10.0207 16.5027 10.0207 15.9439C10.0207 15.3851 10.2246 14.8921 10.6323 14.4648C11.04 14.0375 11.5105 13.8238 12.0437 13.8238C12.5769 13.8238 13.0473 14.0375 13.4551 14.4648C13.8628 14.8921 14.0666 15.3851 14.0666 15.9439C14.0666 16.5027 13.8628 16.9957 13.4551 17.423C13.0473 17.8503 12.5769 18.064 12.0437 18.064Z" fill="#72A7D8"/>
</svg>
