<svg width="22" height="23" viewBox="0 0 22 23" fill="none" xmlns="http://www.w3.org/2000/svg">
<path d="M8 22.2542H2C1.6023 22.2538 1.221 22.0862 0.939778 21.7882C0.65856 21.4902 0.500397 21.0861 0.5 20.6647V17.4855C0.500397 17.064 0.65856 16.66 0.939778 16.3619C1.221 16.0639 1.6023 15.8963 2 15.8959H8C8.3977 15.8963 8.779 16.0639 9.06022 16.3619C9.34144 16.66 9.4996 17.064 9.5 17.4855V20.6647C9.4996 21.0861 9.34144 21.4902 9.06022 21.7882C8.779 22.0862 8.3977 22.2538 8 22.2542V22.2542ZM2 17.4855V20.6647H8V17.4855H2Z" fill="#72A7D8"/>
<path d="M20 14.3063H8C7.6023 14.3059 7.221 14.1383 6.93978 13.8403C6.65856 13.5422 6.5004 13.1382 6.5 12.7167V9.53755C6.5004 9.1161 6.65856 8.71202 6.93978 8.41401C7.221 8.116 7.6023 7.94839 8 7.94797H20C20.3977 7.94839 20.779 8.116 21.0602 8.41401C21.3414 8.71202 21.4996 9.1161 21.5 9.53755V12.7167C21.4996 13.1382 21.3414 13.5422 21.0602 13.8403C20.779 14.1383 20.3977 14.3059 20 14.3063ZM8 9.53755V12.7167H20V9.53755H8Z" fill="#72A7D8"/>
<path d="M11 6.35834H2C1.6023 6.35792 1.221 6.19031 0.939778 5.89229C0.65856 5.59428 0.500397 5.19021 0.5 4.76875V1.58958C0.500397 1.16813 0.65856 0.764057 0.939778 0.466043C1.221 0.16803 1.6023 0.000420824 2 0H11C11.3977 0.000420824 11.779 0.16803 12.0602 0.466043C12.3414 0.764057 12.4996 1.16813 12.5 1.58958V4.76875C12.4996 5.19021 12.3414 5.59428 12.0602 5.89229C11.779 6.19031 11.3977 6.35792 11 6.35834V6.35834ZM2 1.58958V4.76875H11V1.58958H2Z" fill="#72A7D8"/>
</svg>
