<svg width="83" height="83" viewBox="0 0 83 83" fill="none" xmlns="http://www.w3.org/2000/svg">
<g clip-path="url(#clip0)">
<path d="M60.3769 75.6982H22.8415C21.4687 75.6982 20.3561 74.5849 20.3561 73.2121C20.3561 71.8392 21.4687 70.7266 22.8415 70.7266H60.3769C61.7497 70.7266 62.863 71.8392 62.863 73.2121C62.863 74.5849 61.7497 75.6982 60.3769 75.6982Z" fill="#BAE5E5"/>
<path d="M60.3769 70.7266H41.4937V75.6982H60.3769C61.7497 75.6982 62.863 74.5849 62.863 73.2121C62.863 71.8392 61.7497 70.7266 60.3769 70.7266Z" fill="#BAE5E5"/>
<path d="M17.7218 82.4384C17.1981 82.4384 16.67 82.2731 16.2204 81.9318C15.1268 81.1016 14.9134 79.542 15.7436 78.449L29.6705 60.1085C30.5013 59.0149 32.0603 58.8021 33.1539 59.6323C34.2469 60.4625 34.4603 62.0215 33.6301 63.1151L19.7032 81.4556C19.2144 82.0996 18.4722 82.4384 17.7218 82.4384Z" fill="#BAE5E5"/>
<path d="M66.2134 82.838C65.4624 82.838 64.7209 82.4992 64.2314 81.8552L50.0012 63.1151C49.171 62.0215 49.3844 60.4625 50.4781 59.6323C51.571 58.8021 53.1301 59.0149 53.9609 60.1085L68.191 78.8486C69.0212 79.9422 68.8085 81.5012 67.7148 82.332C67.2652 82.6727 66.7371 82.838 66.2134 82.838Z" fill="#BAE5E5"/>
<path d="M41.5139 12.8611C40.8547 12.8611 40.2228 12.5989 39.7567 12.1329L31.9539 4.33009C30.9831 3.35933 30.9831 1.7851 31.9539 0.814342C32.9247 -0.156416 34.4983 -0.155783 35.469 0.814342L41.5146 6.85925L47.8077 0.566112C48.7785 -0.404646 50.3527 -0.404646 51.3235 0.566112C52.2942 1.53687 52.2942 3.11047 51.3235 4.08123L43.2718 12.1329C42.8057 12.5989 42.1738 12.8611 41.5139 12.8611Z" fill="#BAE5E5"/>
<path d="M51.3228 0.566112C50.3521 -0.404646 48.7785 -0.404646 47.8077 0.566112L41.5139 6.85925L41.4937 6.83899V12.8598C41.5006 12.8598 41.507 12.8605 41.5139 12.8605C42.1738 12.8605 42.8057 12.5989 43.2718 12.1322L51.3228 4.08123C52.2942 3.11047 52.2942 1.53687 51.3228 0.566112Z" fill="#BAE5E5"/>
<path d="M67.8226 7.88889H15.4542C14.082 7.88889 12.9688 9.00212 12.9688 10.375V61.6117C12.9688 62.9846 14.082 64.0978 15.4542 64.0978H67.8226C69.1954 64.0978 70.308 62.9846 70.308 61.6117V10.375C70.308 9.00212 69.1954 7.88889 67.8226 7.88889Z" fill="white"/>
<path d="M67.8225 7.88889H41.4937V64.0978H67.8225C69.1954 64.0978 70.308 62.9846 70.308 61.6117V10.375C70.308 9.00212 69.1954 7.88889 67.8225 7.88889Z" fill="white"/>
<path d="M24.1511 40.6603C23.307 40.6603 22.4838 40.2303 22.0177 39.454C21.311 38.2774 21.6916 36.7501 22.8688 36.0434L28.385 32.729C29.155 32.2661 30.1137 32.2553 30.8945 32.6986L35.2727 35.1891L42.1358 29.811C43.035 29.1062 44.2996 29.1056 45.1994 29.8085L50.6041 34.0322L56.3463 22.8435C56.9732 21.6226 58.4715 21.1401 59.693 21.767C60.9139 22.3939 61.3964 23.8921 60.7695 25.1136L53.6538 38.9772C53.3156 39.637 52.7008 40.1107 51.977 40.2702C51.2532 40.4292 50.4958 40.2576 49.912 39.801L43.6707 34.9238L37.0262 40.1303C36.2321 40.7528 35.1404 40.8332 34.264 40.3348L29.6996 37.7385L25.4284 40.3044C25.0281 40.5457 24.5868 40.6603 24.1511 40.6603Z" fill="url(#paint0_linear)"/>
<path d="M28.2007 50.494H24.1486C22.7757 50.494 21.6625 49.3807 21.6625 48.0079C21.6625 46.635 22.7757 45.5224 24.1486 45.5224H28.2007C29.5736 45.5224 30.6868 46.635 30.6868 48.0079C30.6868 49.3807 29.5736 50.494 28.2007 50.494Z" fill="url(#paint1_linear)"/>
<path d="M59.1281 50.494H36.6253C35.2524 50.494 34.1398 49.3807 34.1398 48.0079C34.1398 46.635 35.2524 45.5224 36.6253 45.5224H59.1281C60.501 45.5224 61.6142 46.635 61.6142 48.0079C61.6142 49.3807 60.501 50.494 59.1281 50.494Z" fill="url(#paint2_linear)"/>
</g>
<defs>
<linearGradient id="paint0_linear" x1="60.1839" y1="22.5284" x2="19.1286" y2="32.9002" gradientUnits="userSpaceOnUse">
<stop stop-color="#B9F33C"/>
<stop offset="1" stop-color="#08C86C"/>
</linearGradient>
<linearGradient id="paint1_linear" x1="30.4897" y1="45.7911" x2="20.9563" y2="47.919" gradientUnits="userSpaceOnUse">
<stop stop-color="#FF1E54"/>
<stop offset="1" stop-color="#F0138A"/>
</linearGradient>
<linearGradient id="paint2_linear" x1="61.0141" y1="45.7911" x2="40.1692" y2="59.9557" gradientUnits="userSpaceOnUse">
<stop stop-color="#FF1E54"/>
<stop offset="1" stop-color="#F0138A"/>
</linearGradient>
<clipPath id="clip0">
<rect width="83" height="83" fill="white"/>
</clipPath>
</defs>
</svg>
